<?xml version="1.0" standalone="no"?>
<!DOCTYPE svg PUBLIC "-//W3C//DTD SVG 20010904//EN"
 "http://www.w3.org/TR/2001/REC-SVG-20010904/DTD/svg10.dtd">
<svg version="1.0" xmlns="http://www.w3.org/2000/svg"
 width="1024.000000pt" height="1024.000000pt" viewBox="0 0 1024.000000 1024.000000"
 preserveAspectRatio="xMidYMid meet">

<g transform="translate(0.000000,1024.000000) scale(0.100000,-0.100000)"
fill="#000000" stroke="none">
<path d="M0 5120 l0 -5120 5120 0 5120 0 0 5120 0 5120 -5120 0 -5120 0 0
-5120z m5114 3898 c29 -46 76 -221 146 -543 109 -499 132 -581 227 -804 126
-295 315 -628 481 -845 l45 -58 178 178 179 179 74 -80 c41 -44 75 -82 76 -85
0 -3 -192 -197 -428 -433 l-427 -427 -75 91 c-176 215 -338 449 -470 682 -40
70 -77 130 -82 133 -14 9 -33 -12 -76 -84 -117 -197 -361 -513 -569 -737 -322
-346 -781 -710 -1255 -994 -48 -29 -90 -57 -94 -63 -10 -16 19 -38 181 -138
151 -94 359 -234 470 -319 113 -85 295 -233 295 -239 0 -10 -783 -792 -793
-792 -10 0 -167 130 -167 138 0 4 66 73 146 153 93 93 144 151 139 159 -4 6
-48 42 -99 79 -303 224 -722 468 -1131 659 -248 116 -322 144 -554 217 -107
33 -196 65 -198 72 -3 8 33 23 99 43 331 100 462 152 803 321 1419 699 2243
1609 2656 2929 22 69 64 222 94 341 60 238 78 289 100 289 8 0 21 -10 29 -22z
m1767 -2384 c43 -36 79 -69 79 -72 0 -4 -86 -93 -192 -199 l-192 -192 29 -23
c603 -483 1168 -750 2043 -964 125 -30 236 -58 246 -61 12 -3 -102 -36 -270
-78 -525 -132 -860 -252 -1229 -440 -907 -462 -1560 -1177 -1943 -2126 -61
-150 -101 -298 -182 -673 -93 -429 -131 -565 -167 -601 -33 -34 -54 18 -122
295 -189 773 -503 1402 -970 1943 l-75 87 -158 -157 c-86 -86 -159 -155 -160
-153 -2 3 -37 40 -78 83 l-74 78 399 399 400 400 68 -68 c177 -173 441 -505
602 -757 45 -71 87 -131 93 -133 6 -2 23 18 38 45 15 26 47 84 72 128 68 120
222 352 309 468 361 477 767 841 1302 1167 69 42 126 80 128 86 2 5 -45 39
-104 74 -157 94 -341 219 -478 325 -150 115 -365 303 -365 318 0 14 850 867
863 867 5 0 45 -30 88 -66z"/>
</g>
</svg>
